<svg xmlns="http://www.w3.org/2000/svg" width="36" height="36" id="galaxy"><g transform="translate(0 -1016.362)"><path style="line-height:normal;text-indent:0;text-align:start;text-decoration-line:none;text-decoration-style:solid;text-decoration-color:#000;text-transform:none;block-progression:tb;isolation:auto;mix-blend-mode:normal" fill="#e9eded" d="M18 1018.362c-.791 0-1.2.429-1.617.864-.417.435-.815.989-1.21 1.638-.736 1.206-1.416 2.772-1.94 4.36a1 1 0 0 0-.233.638v3.659c-1.406 3.73-3.395 7.529-6.926 9.742l.074-.041a25.657 25.657 0 0 0-3.597 2.25 1 1 0 0 0-.551.89v.377l.033-.252a1.49 1.49 0 0 0 0 .756l-.033-.252v2.371a1 1 0 0 0 1 1h9c0 1.091.91 2 2 2h-.387l.438 1.317a1 1 0 0 0 .949.683h6a1 1 0 0 0 .95-.683l.437-1.317H22c1.09 0 2-.909 2-2h9a1 1 0 0 0 1-1v-2.373l-.033.254c.065-.25.065-.512 0-.762l.033.254v-.373a1 1 0 0 0-.398-.798 25.658 25.658 0 0 0-3.74-2.34l.073.043c-3.535-2.213-5.528-6.013-6.935-9.746V1025.862a1 1 0 0 0-.235-.645c-.524-1.585-1.203-3.149-1.937-4.353-.396-.65-.794-1.204-1.211-1.639-.417-.435-.826-.863-1.617-.863zm0 2c-.297 0-.089-.024.172.248.261.273.603.73.947 1.295.687 1.127 1.403 2.687 1.881 4.227v3.61a1 1 0 0 0 .062.349c1.47 3.937 3.65 8.267 7.81 10.871a1 1 0 0 0 .075.043c1.062.545 2.074 1.2 3.057 1.91a1 1 0 0 0 0 .074v1.373h-9a1 1 0 0 0-1 1v1h-.334a1 1 0 0 0-.95.684l-.437 1.316h-4.559l-.437-1.316a1 1 0 0 0-.95-.684h-.333v-1a1 1 0 0 0-1-1h-9v-1.37a1 1 0 0 0 0-.073c.985-.713 2-1.373 3.066-1.92a1 1 0 0 0 .074-.04c4.156-2.606 6.332-6.934 7.8-10.868a1 1 0 0 0 .063-.35v-3.609c.478-1.54 1.194-3.1 1.88-4.226.345-.566.687-1.023.948-1.295.26-.273.468-.248.172-.248z" color="#000" font-family="sans-serif" font-weight="400" overflow="visible"></path><path style="isolation:auto;mix-blend-mode:normal" fill="#f05542" d="M18 1020.394c3 1.733 3.14 14.97 11.8 19.97H6.2c8.66-5 8.8-18.238 11.8-19.97z" color="#000" overflow="visible"></path><rect width="30" height="3" x="3.001" y="1042.363" fill="#60c5b8" color="#000" overflow="visible" rx="0" ry="0" style="isolation:auto;mix-blend-mode:normal"></rect><rect width="10" height="3" x="13.001" y="1044.363" fill="#576d7e" color="#000" overflow="visible" rx="1" ry="1" style="isolation:auto;mix-blend-mode:normal"></rect><path style="isolation:auto;mix-blend-mode:normal" fill="#576d7e" d="M14 1046.363h8l-1 3h-6z" color="#000" overflow="visible"></path><path style="isolation:auto;mix-blend-mode:normal" fill="#60c5b8" d="M3.007 1042.363c8.829-6.67 21.158-6.662 29.994 0" color="#000" overflow="visible"></path><path style="isolation:auto;mix-blend-mode:normal" fill="#576d7e" d="M18 1019.363c-1 0-3 3.3-4 6.6v19.4h8V1025.963c-1-3.3-3-6.6-4-6.6z" color="#000" overflow="visible"></path><path style="isolation:auto;mix-blend-mode:normal" fill="#2b4255" d="M14 1025.863s2-.5 4-.5 4 .5 4 .5v2s-2-.5-4-.5-4 .5-4 .5v-1z" color="#000" overflow="visible"></path><path fill="none" stroke="#2b4255" stroke-linecap="round" stroke-linejoin="round" d="M13.5 1041.909v1.909m-10.009-.955h9.883m9.253 0h9.883"></path><path fill="#2b4255" fill-rule="evenodd" stroke="#2b4255" stroke-linecap="round" stroke-linejoin="round" d="M22.5 1041.909v1.909"></path><rect width="6" height="1" x="15.001" y="1038.363" fill="#2b4255" color="#000" overflow="visible" rx=".5" ry=".5" style="isolation:auto;mix-blend-mode:normal"></rect><rect style="isolation:auto;mix-blend-mode:normal" width="6" height="1" x="15.001" y="1040.363" fill="#2b4255" color="#000" overflow="visible" rx=".5" ry=".5"></rect><rect width="6" height="1" x="15.001" y="1042.363" fill="#2b4255" color="#000" overflow="visible" rx=".5" ry=".5" style="isolation:auto;mix-blend-mode:normal"></rect></g></svg>